<?xml version="1.0" encoding="UTF-8" standalone="no"?>
<svg
   xmlns:dc="http://purl.org/dc/elements/1.1/"
   xmlns:cc="http://creativecommons.org/ns#"
   xmlns:rdf="http://www.w3.org/1999/02/22-rdf-syntax-ns#"
   xmlns:svg="http://www.w3.org/2000/svg"
   xmlns="http://www.w3.org/2000/svg"
   xmlns:sodipodi="http://sodipodi.sourceforge.net/DTD/sodipodi-0.dtd"
   xmlns:inkscape="http://www.inkscape.org/namespaces/inkscape"
   id="visual"
   viewBox="0 0 900 600"
   width="900"
   height="600"
   version="1.1"
   sodipodi:docname="grafika.svg"
   inkscape:version="1.0.1 (3bc2e813f5, 2020-09-07)">
  <metadata
     id="metadata11">
    <rdf:RDF>
      <cc:Work
         rdf:about="">
        <dc:format>image/svg+xml</dc:format>
        <dc:type
           rdf:resource="http://purl.org/dc/dcmitype/StillImage" />
        <dc:title></dc:title>
      </cc:Work>
    </rdf:RDF>
  </metadata>
  <defs
     id="defs9" />
  <sodipodi:namedview
     pagecolor="#ffffff"
     bordercolor="#666666"
     borderopacity="1"
     objecttolerance="10"
     gridtolerance="10"
     guidetolerance="10"
     inkscape:pageopacity="0"
     inkscape:pageshadow="2"
     inkscape:window-width="1664"
     inkscape:window-height="956"
     id="namedview7"
     showgrid="false"
     inkscape:zoom="0.6125"
     inkscape:cx="176.01578"
     inkscape:cy="91.202637"
     inkscape:window-x="0"
     inkscape:window-y="0"
     inkscape:window-maximized="0"
     inkscape:current-layer="visual" />
  <g
     transform="translate(450.80454602374834 305.68265190317703)"
     id="g4">
    <path
       d="M142.4 -208.8C193.7 -188.7 250.6 -164.6 278.9 -121.7C307.3 -78.9 307 -17.4 300.6 44.9C294.2 107.1 281.6 170.1 241.5 200.3C201.4 230.4 133.7 227.6 75.4 234.5C17.2 241.4 -31.7 257.9 -89.9 261.4C-148.2 264.8 -215.8 255.2 -256 217.2C-296.2 179.1 -308.9 112.7 -305.1 52C-301.2 -8.8 -280.7 -63.8 -258.6 -120.6C-236.5 -177.4 -212.9 -235.9 -169.5 -259.6C-126.1 -283.3 -63.1 -272.1 -8.7 -258.5C45.6 -244.9 91.2 -228.9 142.4 -208.8"
       fill="#f0c53a"
       id="path2" />
  </g>
  <g
     id="g933"
     transform="matrix(0.76815789,0,0,0.6800153,-104.4522,-3.1309821)">
    <path
       d="m 885.05835,328.01057 a 5.09028,5.09028 0 0 0 3.68913,-8.8227 c -0.12836,-0.51014 -0.22044,-0.8765 -0.34879,-1.38664 q 0.0689,-0.16659 0.13859,-0.33286 c 4.6863,-11.17449 20.5687,-11.09739 25.21513,0.0937 4.12406,9.93267 9.37471,19.88226 10.66755,30.38441 a 40.44007,40.44007 0 0 1 -0.70989,13.908 162.132,162.132 0 0 0 14.74848,-67.33847 156.48736,156.48736 0 0 0 -0.97069,-17.45764 q -0.80412,-7.128 -2.23118,-14.15449 a 164.01034,164.01034 0 0 0 -32.52468,-69.51165 43.64774,43.64774 0 0 1 -18.153,-18.83392 33.29411,33.29411 0 0 1 -3.02794,-9.09827 c 0.88371,0.11592 3.3322,-13.34322 2.66567,-14.169 1.23157,-1.86885 3.43587,-2.79784 4.78094,-4.62148 6.68954,-9.06961 15.906,-7.486 20.71739,4.83888 10.27825,5.18745 10.37774,13.79049 4.07105,22.06463 -4.01234,5.26406 -4.56364,12.38693 -8.08418,18.02253 0.36227,0.46365 0.739,0.91282 1.10112,1.37648 a 165.06913,165.06913 0 0 1 17.22906,27.29491 c -1.36865,-10.69089 0.652,-23.57059 4.09674,-31.873 3.9213,-9.45971 11.27119,-17.4267 17.74364,-25.6046 7.77447,-9.82292 23.71674,-5.536 25.08643,6.91609 q 0.0199,0.18086 0.0388,0.36158 -1.44205,0.8135 -2.8232,1.727 a 6.90459,6.90459 0 0 0 2.78379,12.56506 l 0.1408,0.0217 a 68.70125,68.70125 0 0 1 -1.81092,10.27183 c 8.30335,32.11122 -9.623,43.80678 -35.21939,44.33217 -0.565,0.28972 -1.11566,0.57943 -1.6807,0.8548 a 168.48694,168.48694 0 0 1 9.0693,42.68053 159.80436,159.80436 0 0 1 -0.11592,25.80246 l 0.0435,-0.30421 a 42.227,42.227 0 0 1 14.41527,-24.38271 c 11.09331,-9.11275 26.76607,-12.46849 38.73379,-19.79336 5.76096,-3.526 13.14316,1.03057 12.13766,7.70959 q -0.024,0.1599 -0.049,0.31988 a 46.37722,46.37722 0 0 0 -5.201,2.50624 q -1.44202,0.8137 -2.82317,1.727 a 6.90468,6.90468 0 0 0 2.78377,12.56519 l 0.1409,0.0216 c 0.1014,0.0145 0.1884,0.029 0.2896,0.0436 a 68.7599,68.7599 0 0 1 -12.64756,19.80451 c -5.19187,28.03184 -27.491,30.69143 -51.34422,22.52828 h -0.0145 a 168.43679,168.43679 0 0 1 -11.31491,33.03181 h -40.42043 c -0.145,-0.4491 -0.27531,-0.91275 -0.40575,-1.36192 A 45.9261,45.9261 0 0 0 896.85,362.07187 c -2.999,-3.67994 -5.99787,-7.38886 -8.99686,-11.06867 a 2.51118,2.51118 0 0 1 -0.18835,-0.21734 c -1.52118,-1.88328 -3.05689,-3.75226 -4.57807,-5.6356 l -8.1e-4,-0.002 a 67.27051,67.27051 0 0 1 1.97111,-17.13665 z"
       fill="#f2f2f2"
       id="path2-1" />
    <path
       d="m 1014.8359,224.56578 c -7.5158,-27.40163 53.1024,-50.89907 69.0207,-28.83249 2.2134,-3.1372 10.3935,-5.04278 14.1468,-4.08041 3.7532,0.96237 6.9097,3.36827 9.9893,5.69723 4.2344,3.25279 8.6228,6.62107 11.2211,11.29814 2.6177,4.65781 3.0218,11.0095 -0.5003,15.05138 -2.7909,3.21426 -11.0288,5.293 -15.2247,6.13988 -2.9255,0.59667 -5.3892,1.07785 -7.5064,1.42428 a 14.35164,14.35164 0 0 1 -2.5022,-9.48889 11.64833,11.64833 0 0 0 -5.0812,8.5458 c -0.058,0.71214 23.6549,87.96004 23.6549,87.96004 a 51.72043,51.72043 0 0 1 -8.95,4.02262 112.54468,112.54468 0 0 1 -13.9543,-30.41067 97.45318,97.45318 0 0 0 0.2695,21.65318 119.1445,119.1445 0 0 0 2.0402,11.991 c -28.178,6.08221 -70.5605,4.08053 -88.9994,-21.7878 q 0,-0.16053 -0.01,-0.3213 a 4.40184,4.40184 0 0 0 -8.50331,-1.53505 c -0.44736,1.1413 -0.85908,2.12916 -1.2265,2.91492 -5.36999,-19.20884 1.57824,-41.43942 22.11511,-80.24186 z"
       fill="#2f2e41"
       id="path4" />
    <path
       d="m 966.8857,683.96293 v 0.89737 a 3.809,3.809 0 0 1 0,-0.89737 z"
       fill="#2f2e41"
       id="path6" />
    <path
       d="m 994.48047,528.88823 a 15.32366,15.32366 0 0 1 2.183,-0.424 q -1.26905,0.20681 -2.183,0.424 z"
       fill="#2f2e41"
       id="path8" />
    <path
       d="m 993.84187,529.05097 c 0.19365,-0.0543 0.40921,-0.1086 0.63857,-0.16274 -0.21363,0.0556 -0.41908,0.0965 -0.63857,0.16274 z"
       fill="#2f2e41"
       id="path10" />
    <path
       d="m 1197.7134,773.75369 h -103.2862 a 8.21329,8.21329 0 0 1 -2.2114,-10.1149 c 2.8217,-6.47111 -2.7075,-12.38425 -2.7075,-12.38425 a 17.5668,17.5668 0 0 1 -3.5399,-16.19126 c 2.7366,-9.55783 -7.9876,-36.535 -7.9876,-36.535 0,0 -5.7812,34.83426 -12.8654,75.22543 h -98.2297 a 18.25939,18.25939 0 0 1 0,-18.48907 c 5.72448,-9.70643 0,-11.56794 0,-11.56794 0,0 -5.72448,-10.86155 0,-18.748 5.72448,-7.88645 0,-40.08836 0,-40.08836 0.21572,1.42376 1.84656,-1.16486 4.35751,-6.59238 3.82253,-8.25772 9.66421,-23.10776 15.56624,-40.348 4.21947,-12.30455 8.47344,-25.84306 12.02848,-39.07958 h 0.009 q 1.39787,-5.216 2.64897,-10.33723 c 1.6309,-6.69591 3.0287,-13.202 4.09,-19.31114 2.3039,-13.15884 3.0632,-24.46254 1.2943,-31.8142 -1.4669,-6.1178 -4.6767,-9.49162 -10.21637,-8.91351 2.96829,-0.49184 7.31717,-0.95778 12.67567,-1.39785 0.9664,-0.0777 1.9673,-0.15531 3.0028,-0.24163 39.9683,-3.02006 125.7208,-4.7544 125.7208,-4.7544 l 26.266,47.03515 33.2638,59.58155 c 0,0 -0.906,79.92815 0.1208,145.06657 z"
       fill="#2f2e41"
       id="path12" />
    <path
       d="m 1087.4696,318.77528 -60.5138,-12.83644 -12.0153,24.1852 -40.4621,23.42543 c 0,0 26.0816,106.64135 25.9328,121.63984 -0.3778,38.079 -61.30591,123.44042 -15.28488,116.87355 46.02108,-6.56687 55.36918,-34.07334 70.14318,-29.724 13.3243,3.92253 29.5936,21.37211 40.4855,8.89216 10.8919,-12.47995 14.7283,1.93129 21.6157,2.42934 3.273,0.23669 1.3018,-15.75881 9.537,0.49707 8.2353,16.25588 51.9045,-5.62623 37.1037,-20.42705 -24.65,-24.65 -29.6598,-206.36132 -29.6598,-206.36132 l -27.4406,-8.44326 z"
       fill="#e6e6e6"
       id="path14" />
    <path
       d="m 973.33409,706.05114 a 14.526,14.526 0 0 0 -1.49594,-20.20536 13.9357,13.9357 0 0 0 -1.866,-1.351 l 10.11793,-49.6564 -23.39032,-13.99921 -6.50593,69.52164 a 14.48576,14.48576 0 0 0 3.33874,17.36689 13.86282,13.86282 0 0 0 19.556,-1.38555 q 0.12472,-0.14384 0.24552,-0.29101 z"
       fill="#a0616a"
       id="path16" />
    <path
       d="m 1045.9596,444.30806 c -0.1468,-1.59635 -2.1831,-2.32114 -5.0047,-3.3221 a 30.95043,30.95043 0 0 1 -7.9989,-3.788 c -6.2472,-4.51282 -3.788,-9.23272 -0.3883,-15.75606 0.6645,-1.26845 1.3548,-2.58862 2.0019,-3.96061 1.9242,-4.06416 -1.139,-20.82982 -9.1206,-49.83967 -2.4592,-8.93073 -2.4506,-15.23835 -4.1504,-19.42332 -1.6913,-4.18492 -5.0824,-6.24721 -14.3238,-6.67864 a 42.251,42.251 0 0 0 -30.41631,10.81184 c -0.2243,0.19845 -0.45729,0.41417 -0.68165,0.62125 q -0.6342,0.59541 -1.24254,1.21668 a 42.21984,42.21984 0 0 0 -12.27006,29.02707 l -0.0432,1.85521 -1.90692,88.63448 -5.35848,77.77956 -7.3862,107.14316 5.47065,0.26754 21.83076,1.08712 2.649,0.12945 6.28171,-26.35218 7.55879,-31.71065 2.77848,-11.64881 8.62017,-36.13721 4.021,-16.88647 2.4592,-10.31136 1.0009,-4.21077 4.8838,-20.46737 c 0.1122,-0.43144 11.3468,-44.75732 24.2986,-52.16944 4.8321,-2.76119 6.5751,-4.36619 6.4371,-5.9107 z"
       fill="#e6e6e6"
       id="path18" />
    <path
       d="m 1191.2777,705.52317 a 14.526,14.526 0 0 1 -0.6827,-20.24915 13.93416,13.93416 0 0 1 1.7101,-1.54361 l -15.3924,-48.28254 21.7515,-16.43034 13.9349,68.4208 a 14.48576,14.48576 0 0 1 -1.4543,17.625 13.86281,13.86281 0 0 1 -19.5917,0.72275 q -0.1395,-0.12951 -0.2754,-0.26291 z"
       fill="#a0616a"
       id="path20" />
    <path
       d="m 1201.9184,600.7552 c 0,0 -16.9645,-59.68773 -11.7909,-66.14935 5.1737,-6.46162 -10.1062,-7.7235 -3.5217,-19.75745 6.5846,-12.03395 -2.5037,-14.04665 -2.5037,-14.04665 l -4.9319,-27.66868 -8.8168,-67.96132 -0.2673,-2.02117 -2.5645,-19.77218 a 42.34076,42.34076 0 0 0 -16.696,-28.61684 c -0.2331,-0.17843 -0.4711,-0.34983 -0.7092,-0.52125 q -1.6282,-1.17213 -3.3272,-2.172 a 42.26284,42.26284 0 0 0 -28.1064,-5.33868 c -18.2857,2.84786 -12.5946,9.6669 -15.5605,27.935 -4.819,29.7033 -6.0699,46.69679 -3.7199,50.53631 0.7916,1.2929 1.6235,2.5298 2.4166,3.71735 4.0828,6.129 7.0344,10.55052 1.3046,15.7181 a 31.25081,31.25081 0 0 1 -7.5442,4.6162 c -2.6932,1.304 -4.6426,2.23962 -4.6165,3.84262 0.03,1.55289 1.934,2.95523 7.0314,5.179 6.1769,2.70319 12.8113,12.92324 18.2453,23.36341 a 257.87976,257.87976 0 0 1 11.5182,25.89924 l 46.7048,131.35551 7.6178,21.422 2.6277,-0.41552 21.58,-3.42133 5.4118,-0.85662 z"
       fill="#e6e6e6"
       id="path22" />
    <circle
       cx="1061.9388"
       cy="255.66156"
       r="49.370209"
       fill="#a0616a"
       id="circle24" />
    <path
       d="m 987.88967,228.41524 c -7.51577,-27.40164 53.10243,-50.89908 69.02073,-28.8325 2.2134,-3.1372 10.3935,-5.04277 14.1468,-4.08041 3.7532,0.96236 6.9097,3.36827 9.9893,5.69723 4.2344,3.2528 8.6228,6.62107 11.2211,11.29814 2.6177,4.65781 3.0218,11.0095 -0.5003,15.05138 -2.7909,3.21427 -11.0288,5.293 -15.2247,6.13989 -2.9255,0.59666 -5.3892,1.07784 -7.5064,1.42428 a 14.35166,14.35166 0 0 1 -2.5022,-9.48889 11.64829,11.64829 0 0 0 -5.0812,8.54579 c -0.058,0.71214 23.6549,87.96005 23.6549,87.96005 a 51.72045,51.72045 0 0 1 -8.95,4.02261 112.54462,112.54462 0 0 1 -13.9543,-30.41066 97.45318,97.45318 0 0 0 0.2695,21.65318 119.14215,119.14215 0 0 0 2.0402,11.991 c -28.178,6.0822 -70.56046,4.08053 -88.99938,-21.78781 q -0.005,-0.16051 -0.009,-0.32129 a 4.40184,4.40184 0 0 0 -8.50333,-1.535 c -0.44736,1.14129 -0.85908,2.12916 -1.2265,2.91492 -5.36998,-19.2089 1.57827,-41.43948 22.11507,-80.24191 z"
       fill="#2f2e41"
       id="path26" />
    <path
       d="M 1006.3582,202.60458"
       fill="#2f2e41"
       id="path28" />
    <path
       d="m 743.04377,399.01057 a 5.09028,5.09028 0 0 1 -3.68913,-8.8227 c 0.12835,-0.51014 0.22043,-0.8765 0.34879,-1.38664 q -0.0689,-0.16659 -0.13859,-0.33286 c -4.68631,-11.17449 -20.5687,-11.09739 -25.21514,0.0937 -4.12406,9.93267 -9.37471,19.88226 -10.66754,30.38441 a 40.43982,40.43982 0 0 0 0.70989,13.908 162.13182,162.13182 0 0 1 -14.74848,-67.3384 156.48974,156.48974 0 0 1 0.97068,-17.45764 q 0.80413,-7.128 2.23119,-14.15449 a 164.01022,164.01022 0 0 1 32.52468,-69.51166 43.64785,43.64785 0 0 0 18.153,-18.83392 33.29478,33.29478 0 0 0 3.02794,-9.09827 c -0.88372,0.11592 -3.3322,-13.34321 -2.66567,-14.16899 -1.23157,-1.86885 -3.43587,-2.79784 -4.78094,-4.62148 -6.68954,-9.06961 -15.906,-7.486 -20.7174,4.83888 -10.27825,5.18745 -10.37774,13.79048 -4.07105,22.06462 4.01234,5.26406 4.56364,12.38693 8.08419,18.02253 -0.36227,0.46365 -0.739,0.91282 -1.10113,1.37648 a 165.06908,165.06908 0 0 0 -17.229,27.29491 c 1.36864,-10.69089 -0.652,-23.57059 -4.09675,-31.873 -3.9213,-9.45971 -11.27118,-17.4267 -17.74364,-25.60459 -7.77447,-9.82292 -23.71674,-5.536 -25.08643,6.91608 q -0.0199,0.18086 -0.0388,0.36158 1.44205,0.8135 2.8232,1.727 a 6.90459,6.90459 0 0 1 -2.78379,12.56506 l -0.14079,0.0217 a 68.7,68.7 0 0 0 1.81092,10.27183 c -8.30336,32.11122 9.623,43.80679 35.21939,44.33218 0.565,0.28972 1.11566,0.57943 1.6807,0.8548 a 168.48694,168.48694 0 0 0 -9.0693,42.68053 159.80436,159.80436 0 0 0 0.11591,25.80246 l -0.0435,-0.30421 a 42.227,42.227 0 0 0 -14.4153,-24.3827 c -11.0933,-9.11275 -26.76607,-12.46849 -38.73378,-19.79336 -5.76092,-3.526 -13.14312,1.03057 -12.1377,7.70959 q 0.0241,0.1599 0.0489,0.31988 a 46.37792,46.37792 0 0 1 5.201,2.50624 q 1.44205,0.8137 2.82321,1.727 a 6.90468,6.90468 0 0 1 -2.7838,12.56519 l -0.14091,0.0216 c -0.10138,0.0145 -0.18835,0.029 -0.28961,0.0436 A 68.75993,68.75993 0 0 0 638.93683,379.54 c 5.19187,28.03184 27.491,30.69143 51.34421,22.52828 h 0.0145 a 168.43742,168.43742 0 0 0 11.3149,33.03181 h 40.42043 c 0.145,-0.4491 0.27532,-0.91275 0.40576,-1.36192 a 45.9261,45.9261 0 0 1 -11.18457,-0.66624 c 2.999,-3.67994 5.99787,-7.38886 8.99686,-11.06867 a 2.51291,2.51291 0 0 0 0.18835,-0.21734 c 1.52117,-1.88328 3.05689,-3.75226 4.57807,-5.6356 l 8.1e-4,-0.002 a 67.27051,67.27051 0 0 0 -1.97111,-17.13665 z"
       fill="#f2f2f2"
       id="path30" />
    <path
       d="m 554.43895,195.73429 c -0.9174,2.13788 -29.20421,1.90879 -30.49973,3.81247 -9.98865,14.6971 26.0185,77.22954 16.02986,91.94572 l -1.39152,1.65842 a 65.75661,65.75661 0 0 0 9.35956,-5.28031 c 0.2669,-6.02364 0.5338,-12.06649 0.81966,-18.09013 a 49.72123,49.72123 0 0 1 7.16746,12.60017 c 2.32566,-1.63933 4.23341,-4.67832 14.20146,-10.65578 a 62.515,62.515 0 0 1 13.81367,-11.37108 z"
       fill="#2f2e41"
       id="path32" />
    <path
       d="m 574.97959,316.18511 a 23.4277,23.4277 0 0 0 -35.49309,13.858 l -42.98586,112.00354 -73.88776,-41.94799 a 22.87524,22.87524 0 1 0 -14.27186,22.7523 c 15.56013,16.60716 83.01891,84.69637 110.94638,58.09227 23.47441,-22.362 57.3508,-109.02911 65.50546,-138.957 a 23.43014,23.43014 0 0 0 -9.81327,-25.80112 z"
       fill="#ffb6b6"
       id="path34" />
    <polygon
       points="239.214,366.781 117.341,349.883 130.906,411.195 230.098,420.167 "
       fill="#ffb6b6"
       id="polygon36"
       transform="translate(376.92287,135.7537)" />
    <path
       d="m 645.78135,642.86357 c -0.0453,0.87892 -0.0997,1.74882 -0.16309,2.62779 -0.95143,12.70387 -2.03879,27.356 -3.21674,43.41254 -1.85755,25.4803 -3.93262,54.49451 -6.02577,84.84978 H 428.31988 l 40.35026,-121.28154 c 0,0 16.29251,-8.97031 7.99781,-24.03914 -8.29471,-15.06883 8.02626,-3.06065 8.17809,-24.5811 0.15183,-21.52045 14.777,-44.41548 14.777,-44.41548 l 2.40126,-32.58436 1.36826,0.0272 108.27315,1.80318 1.97535,0.0362 3.32547,27.9722 a 123.668,123.668 0 0 1 28.81482,86.17269 z"
       fill="#2f2e41"
       id="path38" />
    <path
       d="m 556.17293,286.47146 49.37257,-2.54338 22.93226,36.23574 c 0,0 43.14762,7.21373 40.15679,58.05785 -2.99083,50.84412 -52.49777,95.46007 -52.49777,95.46007 l 2.11627,-7.25542 -3.67543,10.502 0.47132,5.89689 5.014,6.245 0.51621,6.4585 -4.44235,10.21851 v 0 a 5.83891,5.83891 0 0 1 -5.53624,8.90024 l -71.33958,-7.14938 c -1.62421,-4.468 -2.92741,-9.81387 -9.43789,-0.91444 l -6.72031,-0.65106 -27.93639,-2.7066 -1.6443,-5.98994 a 23.20469,23.20469 0 0 1 3.77511,-20.01465 v 0 a 30.60736,30.60736 0 0 1 1.77136,-22.98081 l 0.13362,-0.2677 2.96669,-2.47279 c 0,0 -32.45672,-48.76167 4.80261,-85.48825 l 14.95415,-25.42206 16.73241,-20.41434 z"
       fill="#5225bc"
       id="path40" />
    <circle
       cx="568.46088"
       cy="218.2626"
       r="46.818851"
       fill="#ffb6b6"
       id="circle42" />
    <path
       d="m 604.02009,285.70851 a 22.5482,22.5482 0 0 1 -7.54872,-12.39051 48.44628,48.44628 0 0 0 0.66725,17.68978 c -2.53532,1.90623 -4.99432,3.71718 -7.32,5.35651 a 49.721,49.721 0 0 0 -7.16745,-12.60017 c -0.28587,6.02364 -0.55277,12.06649 -0.81967,18.09013 a 65.7548,65.7548 0 0 1 -9.35955,5.2803 l 1.39151,-1.65841 c 9.98864,-14.71618 -15.85987,-41.80368 -5.87123,-56.50078 2.80222,-4.11753 -9.85519,-36.65682 -19.50073,-38.12465 -8.57805,-1.29623 -8.21586,1.18185 -16.527,2.9928 a 41.5889,41.5889 0 0 0 -3.98408,-10.31279 34.07467,34.07467 0 0 1 -0.324,10.86555 c -2.95464,0.11437 -5.27927,-1.76829 -8.42552,-2.24934 -20.07269,-3.069 -18.033,-24.78091 -12.44776,-31.6625 5.60433,-6.8624 24.20918,-8.92116 32.78723,-11.15154 0.78151,-0.76242 2.55429,-0.28586 3.33591,-1.01024 16.43935,-15.045 38.42593,-17.53657 58.21178,-10.86829 21.10012,7.11122 34.25569,20.87458 41.00764,42.0924 l 1.93652,16.97969 c 1.73734,5.45956 -0.44817,30.8622 -1.93652,36.39483 -5.78548,21.50618 -18.10683,10.77022 -38.10561,32.78723 z"
       fill="#2f2e41"
       id="path44" />
    <path
       d="M 672.28616,507.52412 670.443,363.97128 a 23.17268,23.17268 0 0 0 -23.16985,-22.80657 h -7e-5 a 23.17271,23.17271 0 0 0 -23.14009,24.40154 l 6.486,149.05754 0.12313,90.73906 a 20.22151,20.22151 0 1 0 24.8266,7.56106 z"
       fill="#ffb6b6"
       id="path46" />
    <path
       d="m 913.92287,693.24744 c 0,0 -2.85,51.27 -4.16,80.51 h -98.14 c -2.02,-26.61 -2.7,-46.16 -2.7,-46.16 l -5.37,46.16 h -99.2 l -6.15,-85.49 29.72,-73.67 c 0,0 161.06,-11.17 176,3 14.93,14.16007 10,75.65 10,75.65 z"
       fill="#2f2e41"
       id="path48" />
    <circle
       cx="827.13885"
       cy="208.35251"
       r="53.606918"
       fill="#ffb6b6"
       id="circle50" />
    <path
       d="m 889.62309,190.93358 c -5.50615,2.51069 -9.07382,20.69444 -13.4016,16.4671 -4.32778,-4.22734 -4.03893,-9.7286 -9.87364,-11.2887 -4.71184,-1.26523 -9.78253,0.18078 -14.08037,2.46133 -0.7674,0.40241 -1.51139,0.83995 -2.2365,1.27509 -0.47865,-0.31981 -0.955,-0.62073 -1.46639,-0.89836 a 17.03314,17.03314 0 0 0 -12.5366,-1.41014 16.7126,16.7126 0 0 1 8.2586,6.0872 c -1.4384,0.96394 -2.89543,1.93037 -4.38568,2.78668 -12.45014,7.18478 -30.16623,-8.43822 -43.27124,-14.3074 8.2086,15.404 4.16668,21.78351 -2.96071,37.71453 l -0.24613,0.90714 c 0.40491,-3.99277 -11.95042,-6.96835 -11.23395,-1.34772 0.5087,3.99065 3.96222,12.86081 5.89652,16.38421 -13.77842,-15.93172 -23.19417,-35.42777 -21.20733,-55.53959 0.4325,-4.22486 0.30214,-8.68257 2.48127,-12.3495 2.18143,-3.648 6.7293,-6.208 10.75272,-4.81688 a 35.542,35.542 0 0 1 53.50674,-32.52446 c 5.14478,3.01886 9.43984,7.28849 14.15516,10.97139 4.71543,3.68287 10.15119,6.89311 16.13038,7.19715 3.79317,0.18294 7.921,-0.74312 11.17973,1.22146 3.77491,2.2796 4.42131,7.05234 4.98779,11.64491 a 17.01391,17.01391 0 0 0 -9.16691,3.815 16.648,16.648 0 0 1 10.02242,2.14968 1.03627,1.03627 0 0 1 0.16413,0.0933 c 1.99575,7.58998 1.7913,9.27257 8.53159,13.30657 z"
       fill="#2f2e41"
       id="path52" />
    <path
       d="m 704.59077,640.53257 c 45.65079,-53.43516 30.23132,-121.4003 12.11288,-190.00758 l 3.44756,-101.35372 a 31.00393,31.00393 0 0 1 14.02907,-24.90184 l 46.60359,-30.44606 18.139,-26.22589 50,5 27.72649,29.322 30.69062,23.42985 a 50.84312,50.84312 0 0 1 18.79205,51.39009 l -29.36968,132.82051 c 0,0 12.28383,68.85522 4.78852,76.45969 -7.49531,7.60447 -26.80842,0.004 -11.49291,8.54042 18.37976,10.24451 35.09164,8.35414 25.79051,17.65527 -9.30113,9.30113 2.47025,22.23225 2.47025,22.23225 z"
       fill="#5225bc"
       id="path54" />
    <path
       d="m 724.10881,718.19203 7.61052,-54.22065 -30.36735,-8.66909 -6.00663,57.61172 a 18.32876,18.32876 0 1 0 28.76346,5.278 z"
       fill="#ffb6b6"
       id="path56" />
    <path
       d="m 781.92287,303.59748 c 0,0 -86.4384,28.13284 -88.4995,48.71733 -2.0611,20.58449 -1.37757,33.18565 -10.5005,115.55581 l 0.48061,221.88319 c 0,0 57.95172,12.40752 52.0085,-0.8585 -5.94322,-13.26602 -3.86948,-19.50742 -3.86948,-19.50742 0,0 12.42491,-4.90311 9.31468,-20.47947 -3.11023,-15.57636 12.48716,-92.76777 12.48716,-92.76777 l 9.84453,-138.43885 z"
       fill="#5225bc"
       id="path58" />
    <path
       d="m 888.50338,715.32057 -4.05011,-54.60215 30.86907,-6.66559 2.228,57.88114 a 18.32876,18.32876 0 1 1 -29.047,3.3866 z"
       fill="#ffb6b6"
       id="path60" />
    <path
       d="m 857.91294,297.83362 c 0,0 84.41465,33.72272 85.12583,54.39792 0.71118,20.6752 -0.79456,33.20472 2.92474,115.99505 l -14.983,221.37726 c 0,0 -58.63881,8.593 -51.84116,-4.2562 6.79765,-12.8492 5.1363,-19.21278 5.1363,-19.21278 0,0 -12.07784,-5.70478 -7.95612,-21.04453 4.12172,-15.33975 -6.39666,-93.38559 -6.39666,-93.38559 l -0.77441,-138.78628 z"
       fill="#5225bc"
       id="path62" />
  </g>
</svg>
