<svg id="visual" viewBox="0 0 1920 100" width="1920" height="100" xmlns="http://www.w3.org/2000/svg" xmlns:xlink="http://www.w3.org/1999/xlink" version="1.1"><rect x="0" y="0" width="1920" height="100" fill="#fff"></rect><path d="M0 98L10.3 90.8C20.7 83.7 41.3 69.3 62 68.2C82.7 67 103.3 79 124 74.2C144.7 69.3 165.3 47.7 186 43C206.7 38.3 227.3 50.7 248 50.8C268.7 51 289.3 39 310 40.8C330.7 42.7 351.3 58.3 372 63.3C392.7 68.3 413.3 62.7 433.8 57C454.3 51.3 474.7 45.7 495.2 45.2C515.7 44.7 536.3 49.3 557 48.3C577.7 47.3 598.3 40.7 619 43.5C639.7 46.3 660.3 58.7 681 67C701.7 75.3 722.3 79.7 743 76.7C763.7 73.7 784.3 63.3 805 65C825.7 66.7 846.3 80.3 867 83C887.7 85.7 908.3 77.3 929 69.8C949.7 62.3 970.3 55.7 991 47.8C1011.7 40 1032.3 31 1053 35.2C1073.7 39.3 1094.3 56.7 1115 56.7C1135.7 56.7 1156.3 39.3 1177 37.8C1197.7 36.3 1218.3 50.7 1239 52.5C1259.7 54.3 1280.3 43.7 1301 42C1321.7 40.3 1342.3 47.7 1363 49.8C1383.7 52 1404.3 49 1424.8 50C1445.3 51 1465.7 56 1486.2 56.2C1506.7 56.3 1527.3 51.7 1548 53.7C1568.7 55.7 1589.3 64.3 1610 63.8C1630.7 63.3 1651.3 53.7 1672 50.3C1692.7 47 1713.3 50 1734 54.2C1754.7 58.3 1775.3 63.7 1796 60.3C1816.7 57 1837.3 45 1858 49.8C1878.7 54.7 1899.3 76.3 1909.7 87.2L1920 98L1920 101L1909.7 101C1899.3 101 1878.7 101 1858 101C1837.3 101 1816.7 101 1796 101C1775.3 101 1754.7 101 1734 101C1713.3 101 1692.7 101 1672 101C1651.3 101 1630.7 101 1610 101C1589.3 101 1568.7 101 1548 101C1527.3 101 1506.7 101 1486.2 101C1465.7 101 1445.3 101 1424.8 101C1404.3 101 1383.7 101 1363 101C1342.3 101 1321.7 101 1301 101C1280.3 101 1259.7 101 1239 101C1218.3 101 1197.7 101 1177 101C1156.3 101 1135.7 101 1115 101C1094.3 101 1073.7 101 1053 101C1032.3 101 1011.7 101 991 101C970.3 101 949.7 101 929 101C908.3 101 887.7 101 867 101C846.3 101 825.7 101 805 101C784.3 101 763.7 101 743 101C722.3 101 701.7 101 681 101C660.3 101 639.7 101 619 101C598.3 101 577.7 101 557 101C536.3 101 515.7 101 495.2 101C474.7 101 454.3 101 433.8 101C413.3 101 392.7 101 372 101C351.3 101 330.7 101 310 101C289.3 101 268.7 101 248 101C227.3 101 206.7 101 186 101C165.3 101 144.7 101 124 101C103.3 101 82.7 101 62 101C41.3 101 20.7 101 10.3 101L0 101Z" fill="#f0c53a" stroke-linecap="round" stroke-linejoin="miter"></path></svg>